<svg xmlns="http://www.w3.org/2000/svg" xmlns:xlink="http://www.w3.org/1999/xlink" width="1921" height="584" viewBox="0 0 1921 584"><defs><clipPath id="a"><rect width="1921" height="584" transform="translate(0 746)" fill="#fff"/></clipPath><linearGradient id="b" x1="0.537" y1="0.467" x2="1.031" y2="0.163" gradientUnits="objectBoundingBox"><stop offset="0" stop-color="#597fa8" stop-opacity="0.4"/><stop offset="0.443" stop-color="#597fa8" stop-opacity="0.2"/><stop offset="1" stop-color="#597fa8" stop-opacity="0.4"/></linearGradient></defs><g transform="translate(0 -762)"><g transform="translate(0 16)" clip-path="url(#a)"><path d="M1175.995,1565.015c23.826,155.754,77.546,310.277,155.358,446.871q3.77,6.618,7.615,13.182c76.029,129.808,174.92,245.8,286.71,336.132l2.233-3.5c-115.174-93.071-216.564-213.385-293.335-348.141-77.537-136.111-131.066-290.084-154.809-445.275-28.346-185.283-9.2-359.878,52.339-494.641q19.321,3.565,38.719,6.946c-54.91,138.216-67.653,312.929-32.935,498.149,28.758,153.46,83.745,299.394,160,429.588,81.491,139.135,187.282,260.29,311.264,353.324l2.23-3.748c-239.141-179.446-410.292-463.771-469.576-780.093-34.634-184.79-21.828-358.993,33.12-496.512,123.985,21.3,249.744,33.864,370.425-2.119,64.281-19.163,125.35-52.022,179.163-96.008q14.518-10.324,28.418-21.647,14.316-10.139,28-21.292,14.544-10.224,28.454-21.443,14.535-10.143,28.388-21.322,14.817-10.249,28.928-21.534,14.7-10.067,28.66-21.165,14.978-10.128,29.19-21.275c.134-.107.265-.221.4-.325q11.414-7.623,22.374-15.821c2.15-1.623,4.293-3.336,6.44-5.009,5.5-3.611,10.948-7.309,16.321-11.141,4.559-3.265,9.106-6.661,13.641-10.135q4.588-2.952,9.121-6c7.209-4.881,14.413-10.047,21.575-15.425.388-.245.79-.466,1.178-.714,10.039-6.373,20.069-13.276,29.986-20.538,10.719-6.568,21.39-13.622,31.888-21.071,9.058-5.341,18.069-10.953,26.918-16.85,1.792-1.193,3.578-2.461,5.367-3.684,5.486-3.081,10.954-6.226,16.36-9.491,5.617-3.393,11.211-6.973,16.8-10.638,1.628-.858,3.3-1.66,4.916-2.531,9.288-5.009,18.534-10.41,27.729-16.119q16.978-8.283,33.586-17.873c71.38-31.9,136.988-80.7,186.295-138.914,59.624-70.4,94.1-152.27,99.7-236.742l-4-.335c-5.528,83.422-39.623,164.33-98.605,233.969-40.058,47.3-90.978,88.343-147.015,119.056a614.184,614.184,0,0,0,112.822-100.228c69.645-78.9,116.3-172.064,131.368-262.349l-3.766-.795c-14.929,89.443-61.209,181.817-130.323,260.109-42.485,48.21-91.846,89.138-144.606,120.25,45.175-32.855,88.409-73.733,127.4-120.716,68.219-81.98,121.376-179.939,145.843-268.755l-3.491-1.217c-24.306,88.246-77.164,185.622-145.023,267.166-43.729,52.689-92.812,97.613-143.956,132.108-.647.265-1.285.553-1.932.811-.895.359-1.8.674-2.7,1.029,45.333-36.11,89.309-81.162,131.326-134.639,66.109-83.848,124.54-184.153,160.307-275.2l-3.178-1.576c-35.63,90.69-93.849,190.624-159.735,274.183-44.894,57.141-92.021,104.607-140.631,141.767-2.773,1.036-5.531,2.125-8.312,3.125,44.086-38.665,87.576-86.862,131.609-145.786,80.078-106.746,143.869-222.3,174.768-281.683l-2.85-1.874c-30.842,59.28-94.521,174.629-174.44,281.166-46.213,61.838-91.8,111.771-138.1,151.251-3.432,1.18-6.854,2.4-10.3,3.517,42.488-40.821,85.257-91.777,130.98-155.861,46.835-65.375,92.636-137.355,133.046-200.859,19.92-31.316,38.737-60.889,56.182-87.351l-2.51-2.092c-17.461,26.489-36.284,56.072-56.213,87.4-40.386,63.467-86.157,135.4-132.942,200.7-47.428,66.485-91.656,118.838-135.67,160.3q-5.769,1.815-11.565,3.53c50.043-52.229,92.854-111.171,129.719-165.107,22.6-32.926,45.434-67.427,67.513-100.795,48.157-72.781,93.644-141.519,136.19-193.98l-2.177-2.233c-42.646,52.582-88.176,121.39-136.377,194.231-22.07,33.358-44.895,67.849-67.483,100.755-37.8,55.3-81.867,115.865-133.544,168.98-4.1,1.177-8.22,2.253-12.335,3.363,48.985-55.291,91.08-117.192,128.261-173.794q13.668-20.719,27.469-41.84c62.925-96.061,127.986-195.391,190.717-259.546l-1.867-2.307c-62.933,64.366-128.075,163.823-191.08,260.005-9.2,14.041-18.355,28.028-27.464,41.837-37.941,57.758-81.038,121.008-131.293,177.076-4.377,1.147-8.769,2.233-13.161,3.309,44.48-54.02,84.592-115.442,126.719-182,70.852-111.486,151.156-237.848,232.683-308.031l-1.575-2.313c-81.836,70.448-162.26,197-233.219,308.654-42.864,67.725-83.632,130.13-129.027,184.763-4.729,1.133-9.458,2.25-14.2,3.306,45.073-58.579,84.932-123.676,123.9-187.408l1.485-2.431c137.486-224.032,199.691-279.913,247.2-314.709l-1.321-2.276c-41.164,30.146-83.817,75.178-130.4,137.67-41.653,55.884-81.076,118.466-117.473,177.773l-1.488,2.434c-39.5,64.611-79.923,130.629-125.744,189.776-4.851,1.056-9.7,2.132-14.562,3.111,40.32-55.827,76.287-116.723,111.5-176.385l12.32-20.853c131.075-220.713,205.864-286.33,261.74-321.4l-1.089-2.2c-45.747,28.711-91.822,73.7-140.858,137.536-46.851,61-89.627,130.727-121.656,184.666l-12.323,20.856c-35.646,60.4-72.048,122.074-112.959,178.417q-7.549,1.5-15.126,2.893c36.412-53.5,69.165-110.963,101.25-167.337q10.51-18.471,21.053-36.892c69.543-120.79,163.8-267.243,276.3-328.119l-.894-2.085c-50.259,27.193-99.747,72.137-151.291,137.4-39.164,49.581-79.15,110.45-125.84,191.546q-10.564,18.405-21.062,36.9c-32.455,57.027-65.6,115.167-102.508,169.161-5.14.929-10.292,1.773-15.442,2.628,33.1-51.435,63.076-106.022,92.484-159.609,9.243-16.843,18.8-34.257,28.289-51.278,134.9-241.237,230.605-306.639,290.864-334.844l-.724-1.961c-54.734,25.62-107.631,70.521-161.715,137.258-41.958,51.774-83.274,114.822-130.02,198.425-9.5,17.024-19.056,34.441-28.3,51.284-29.706,54.137-59.987,109.3-93.48,161.168q-7.97,1.308-15.955,2.5c30.26-49.578,57.867-101.65,84.961-152.84,11.214-21.188,22.812-43.1,34.4-64.443,65.211-119.895,167.821-285.746,305.447-341.593l-.578-1.8c-138.132,56.048-240.984,222.252-306.326,342.391-11.589,21.359-23.188,43.275-34.408,64.467-27.339,51.653-55.2,104.2-85.781,154.168q-8.135,1.212-16.279,2.347c27.788-47.851,53.275-97.714,78.33-146.759,12.892-25.235,26.226-51.328,39.626-76.667C2245.5,389.9,2290.7,320.6,2337.087,265.948c58.216-68.577,119.411-114.5,181.888-136.48l-.456-1.643c-62.731,22.07-124.14,68.144-182.539,136.936-46.472,54.748-91.732,124.146-138.365,212.167-13.408,25.349-26.742,51.445-39.635,76.687-25.255,49.43-50.941,99.7-78.978,147.882-5.575.758-11.151,1.515-16.73,2.216,25.615-46.245,49.265-94.086,72.519-141.2,14.335-29.05,29.16-59.086,44.163-88.152,104.464-202.143,213.926-318.3,334.652-355.1l-.355-1.472c-121.087,36.915-230.817,153.3-335.469,355.808-15.01,29.08-29.84,59.122-44.179,88.179-23.415,47.435-47.229,95.612-73.044,142.142q-8.493,1.056-16.989,2.038c23.659-44.677,45.61-90.64,67.227-135.93,15.6-32.694,31.739-66.5,48.183-99.105,47.381-93.885,95.3-167.686,146.514-225.611,63.335-71.655,131.552-117.5,202.753-136.258l-.265-1.287c-71.422,18.818-139.832,64.782-203.326,136.611-51.281,58.013-99.267,131.9-146.7,225.893-16.452,32.617-32.595,66.431-48.2,99.132-21.748,45.565-43.839,91.81-67.659,136.734-5.781.661-11.56,1.277-17.341,1.888,21.906-43.148,42.324-87.321,62.51-131,16.712-36.174,33.993-73.579,51.737-109.542,47.837-96.953,97.126-173,150.691-232.491,65.912-73.2,137.644-119.006,213.2-136.144l-.2-1.106c-75.754,17.182-147.656,63.092-213.708,136.45-53.633,59.565-102.979,135.7-150.864,232.749-17.75,35.97-35.034,73.384-51.752,109.565-20.284,43.905-40.81,88.307-62.838,131.659-32.446,3.423-64.859,6.186-96.986,8.9-36.364,3.074-73.968,6.256-110.72,10.353-67.924,7.567-151.487,20.742-233.771,50.822q-31.405,8.71-60.088,19.442-24.513,7.01-47.447,15.355-31.217,8.539-60.014,19.3-24.415,6.89-47.4,15.2-27.908,7.5-54.042,16.887-28.669,7.6-55.512,17.259-26.678,7.025-51.844,15.888-28.968,7.377-56.221,16.87-28.315,7.136-55.056,16.307-28.467,7-55.4,16.062-28.811,6.895-56.126,15.878Q953.524,969.5,925.61,978.46q-29.285,6.583-57.173,15.231-29.115,6.266-56.877,14.59-30.484,6.2-59.54,14.614c-20.186,3.9-39.969,8.435-59.248,13.732a791,791,0,0,0-131.94,35.648c-79.412,29.235-154.63,73.891-217.524,129.128-67.8,59.552-120.738,129.845-157.346,208.929-34.2,73.877-55.309,158.1-62.754,250.344-6.721,83.3-2.284,171.712,13.188,262.794,29.375,172.946,92.934,336.662,154.4,494.99l.918-.449c-61.445-158.268-124.978-321.93-154.332-494.752-15.454-90.975-19.887-179.289-13.17-262.483,7.43-92.1,28.5-176.181,62.638-249.917,36.543-78.947,89.389-149.116,157.078-208.567,62.8-55.16,137.915-99.749,217.214-128.943a784.513,784.513,0,0,1,120.112-33.378c-4.478,1.307-8.986,2.568-13.414,3.953-21.116,6.611-42.017,14.208-62.125,22.576-161.243,67.041-291.683,195.864-357.872,353.438-31.233,74.357-49.754,158.231-55.053,249.3-4.833,83,1.315,170.391,18.277,259.727,31.239,164.547,92.359,317.4,163.128,485.884l1.064-.566c-70.736-168.407-131.827-321.19-163.041-485.593-16.936-89.222-23.078-176.483-18.256-259.369,5.292-90.9,23.778-174.612,54.945-248.811,66.061-157.269,196.26-285.843,357.219-352.764,20.075-8.358,40.947-15.945,62.027-22.546,8.936-2.8,18.006-5.384,27.148-7.869q11.383-2.032,22.92-3.778c-2.1.724-4.249,1.381-6.342,2.122-20.86,7.4-41.483,15.824-61.284,25.057-155.37,72.268-279.608,206.7-340.874,368.826-28.269,74.809-44.208,158.319-47.372,248.214-2.913,82.7,4.958,169.064,23.394,256.693,35.44,168.46,104.33,327.9,171.855,476.772l1.2-.695c-67.483-148.783-136.338-308.131-171.742-476.433-18.406-87.489-26.265-173.714-23.358-256.277,3.158-89.712,19.062-173.04,47.265-247.681,61.126-161.762,185.1-295.895,340.144-368.012,19.771-9.213,40.353-17.635,61.18-25.013,4.762-1.683,9.61-3.232,14.434-4.821q12.487-1.771,25.144-3.212c-19.184,7.751-38.147,16.418-56.4,25.868-149.693,77.3-267.738,217.341-323.876,384.218-25.305,75.238-38.663,158.379-39.7,247.108-.963,82.386,8.635,167.732,28.528,253.675,39.9,172.4,114.14,331.794,180.585,467.667l1.345-.825c-66.407-135.786-140.59-295.073-180.451-467.274-19.855-85.792-29.438-170.991-28.475-253.22,1.038-88.531,14.365-171.471,39.608-246.517,55.992-166.462,173.751-306.16,323.08-383.269,19.5-10.095,39.8-19.334,60.33-27.474.561-.221,1.136-.416,1.7-.634q13.426-1.428,27.025-2.5c-15.26,7.175-30.284,14.969-44.829,23.277-144.254,82.175-256.1,227.827-306.866,399.616-22.35,75.641-33.135,158.4-32.055,245.972,1.011,82.051,12.344,166.394,33.68,250.685,42.539,168.043,119.572,326.1,189.321,458.568l1.467-.982c-69.686-132.352-146.66-290.282-189.145-458.1-21.295-84.133-32.6-168.309-33.615-250.189-1.076-87.361,9.681-169.905,31.966-245.345,50.628-171.31,162.164-316.556,306.022-398.507,16.005-9.143,32.6-17.621,49.441-25.369,3.843-.275,7.681-.553,11.545-.784,5.516-.328,11.08-.6,16.661-.838-11.4,6.172-22.637,12.669-33.561,19.522-70.167,43.855-131.221,102.8-181.465,175.209-49.522,71.366-85.99,152.042-108.391,239.8-37.6,147.319-32.473,322.232,14.431,492.533,47.4,172.087,130.741,330.594,198.051,449.455l1.592-1.136c-67.253-118.751-150.512-277.1-197.846-448.946-46.794-169.908-51.916-344.4-14.416-491.319,22.332-87.5,58.69-167.933,108.066-239.082C655.3,1147.765,716.16,1089,786.1,1045.286c12.138-7.61,24.661-14.788,37.372-21.55q14.432-.548,29.142-.7c-7.639,4.731-15.194,9.589-22.577,14.644-68.294,46.621-126.943,108.65-174.312,184.368-46.045,73.589-79.192,156.371-98.525,246.045-32.047,148.656-22.374,322.1,27.237,488.4,23.477,78.682,67.37,203.205,179.929,395.378q12.818,21.886,26.862,44.975l1.7-1.31c-63.428-104.269-153.879-263.294-206.534-439.783C536.9,1789.872,527.25,1616.88,559.21,1468.642c19.267-89.393,52.31-171.906,98.2-245.257,47.211-75.453,105.648-137.271,173.7-183.724,8.432-5.773,17.07-11.318,25.827-16.666q14.875-.09,30.019.225c-4.058,2.86-8.1,5.75-12.067,8.71-66.49,49.38-122.742,114.487-167.194,193.521-42.631,75.792-72.448,160.679-88.62,252.3-26.453,149.894-12.231,321.877,40.043,484.259,33.549,104.211,81.458,208.815,148.228,322.819q30.891,52.742,67.3,108.439l1.807-1.5c-103.021-157.675-171.4-294.5-215.229-430.617C609.084,1799.2,594.9,1627.7,621.272,1478.241c16.119-91.317,45.831-175.916,88.316-251.45,44.283-78.725,100.314-143.581,166.536-192.763q7.366-5.487,14.938-10.732,15.314.372,30.893,1.157c-.733.583-1.488,1.143-2.218,1.733-127.074,102.324-211.874,266.127-238.789,461.23-20.827,151-2.057,321.512,52.853,480.122,30.782,88.9,72.784,178.679,127.187,271.565q43.235,73.824,97.088,150.584l1.9-1.683c-103.674-147.858-176.921-285.712-223.92-421.451-54.761-158.171-73.482-328.183-52.718-478.724,26.811-194.372,111.265-357.538,237.808-459.44,1.562-1.26,3.175-2.471,4.753-3.718q15.694.84,31.632,2.1C838.6,1134.11,762.449,1300.658,742.818,1497.089c-15.4,154.165,7.3,318.756,65.664,475.975,28.322,76.281,64.445,151.9,109.13,228.2,35.708,60.966,76.878,122.356,123.892,184.851l1.977-1.885C937.8,2243.75,861.717,2108.883,810.88,1971.94c-58.2-156.763-80.841-320.854-65.482-474.526,19.673-196.86,96.3-363.556,215.944-470.339q16.088,1.313,32.416,3.048c-109.879,112.2-176.816,280.406-189.062,476.648-9.672,154.983,17.463,318.135,78.476,471.831q38.016,95.765,93.73,190.885Q1040,2277.21,1124.937,2382.54l2.054-2.089c-106.122-131.5-187.3-267.13-241.291-403.12-60.831-153.229-87.883-315.873-78.244-470.339,12.266-196.551,79.568-364.83,190.034-476.477q16.476,1.8,33.171,4.013c-101.116,116.76-159.123,286.279-164.088,481.932-3.957,155.616,27.61,317.335,91.288,467.677a1363.34,1363.34,0,0,0,79.153,157.185c47.786,81.588,105.1,161.1,171.366,237.657l2.114-2.313c-107.985-124.736-192.085-257.293-249.974-393.954-63.476-149.873-94.947-311.068-91.008-466.155,4.973-195.82,63.24-365.316,164.8-481.53q6.91.935,13.85,1.935c6.646.965,13.346,2.065,20.027,3.114-92.579,121.018-141.916,291.466-139.746,486.083,1.741,156.059,37.741,316.345,104.107,463.52a1338.926,1338.926,0,0,0,65.291,126.258c53.327,91.053,118.257,177.948,193.982,259.482l2.159-2.538c-109.792-118.215-196.817-247.671-258.65-384.788-66.147-146.7-102.031-306.448-103.767-461.978-2.171-194.673,47.381-365,140.309-485.465q17.451,2.776,34.951,5.827c-83.411,124.605-125.494,299.076-116.5,489.385,7.389,156.324,47.819,315.165,116.922,459.362q23.74,49.535,51.606,97.114c58.875,100.521,131.385,194.215,216.421,279.524l2.2-2.766c-111.578-111.939-201.522-238.317-267.324-375.632-68.872-143.715-109.163-302.02-116.528-457.8-8.992-190.262,33.269-364.538,116.934-488.55q17.916,3.153,35.75,6.454c-75.713,128.464-109.754,303.183-94.1,492,12.967,156.357,57.832,313.764,129.736,455.2q17.2,33.829,36.555,66.87A1343.908,1343.908,0,0,0,1458.739,2368.3l2.222-3c-111.74-104.385-207.161-231.109-276-366.459-71.657-140.959-116.367-297.826-129.289-453.626-15.642-188.659,18.519-363.1,94.41-490.954q18.444,3.43,36.662,6.883c-68.387,132.061-94.765,306.924-72.641,494.152,18.45,156.17,67.743,312.134,142.546,451.035q10.8,20.055,22.338,39.755c70.28,120,160.629,229.493,263.212,318.668l2.239-3.248c-113.463-98.626-211.937-222.148-284.665-357.3-74.544-138.424-123.663-293.84-142.054-449.449-22.088-186.966,4.368-361.467,72.868-492.888q18.735,3.545,37.568,7.05C1166.683,1204.346,1147.592,1379.377,1175.995,1565.015Zm56.609-496.422q5.76-12.542,12.037-24.591,18.592,3.329,37.276,6.591c-3.7,8.187-7.293,16.464-10.674,24.93Q1251.89,1072.174,1232.6,1068.594Zm-411.455-56.159q11.078-4.4,22.419-8.418,11.5-1.871,23.179-3.456-10.515,4.546-20.77,9.451Q833.463,1011.062,821.149,1012.435Zm-6.589.684c-7.35.868-14.619,1.861-21.861,2.9q10.47-3.465,21.146-6.628c6.673-1.341,13.364-2.655,20.141-3.839Q824.177,1009.2,814.559,1013.119ZM2099.038,720.778q-4.781,7.005-9.649,13.917c-4.932,1.133-9.9,2.2-14.9,3.228q4.8-7.226,9.514-14.543c4.332-.734,8.682-1.4,13-2.2C2097.689,721.049,2098.357,720.905,2099.038,720.778Zm130.521-36.637c-1.2.909-2.409,1.827-3.614,2.726-1.679.825-3.384,1.566-5.072,2.374,1.219-1.053,2.436-2.139,3.652-3.205,1.556-.59,3.146-1.153,4.687-1.753C2229.328,684.238,2229.441,684.184,2229.558,684.141ZM963.08,980.79q12.778-1.252,25.767-2.169-6.449,3.741-12.785,7.617c-2.5,1.545-4.964,3.178-7.448,4.771q-13.708.352-27.2,1.063Q952.082,986.223,963.08,980.79Zm-27.24,11.577q-12.939.754-25.684,1.827,10.761-5.114,21.82-9.836c8.056-1.079,16.163-2.078,24.354-2.944Q945.936,986.7,935.84,992.366ZM2068.806,743.3c-3.172,4.7-6.4,9.337-9.637,13.96-4.91,1.183-9.869,2.266-14.833,3.339q4.741-7.191,9.374-14.5,7.558-1.323,15.081-2.8ZM1962.977,871.751c.823-.754,1.645-1.5,2.465-2.26,1.246-.721,2.493-1.438,3.733-2.172-.513.419-1.014.852-1.527,1.271C1966.1,869.659,1964.536,870.7,1962.977,871.751ZM1236.933,988.045c5.239-6.95,10.7-13.689,16.262-20.31q15.824,1.77,31.7,3.825c-2.177,2.953-4.395,5.867-6.509,8.874q-4.307,6.12-8.444,12.425Q1253.469,990.369,1236.933,988.045ZM1057.69,974.524q-13.9.01-27.592.379,10.246-6.512,20.863-12.6,12.97-.91,26.17-1.448c-4.4,2.927-8.76,5.894-13.042,8.941C1061.936,971.329,1059.825,972.951,1057.69,974.524Zm7.877-2.1c5.71-4.06,11.539-7.982,17.439-11.828q13.534-.5,27.288-.644c-.728.543-1.473,1.073-2.2,1.623-5.662,4.311-11.238,8.817-16.76,13.41q-14.388-.438-28.558-.5C1063.713,973.813,1064.631,973.1,1065.567,972.428ZM2124.42,752.7c1.384-1.277,2.779-2.545,4.151-3.835,1.911-.879,3.793-1.8,5.692-2.7-1.3,1.073-2.6,2.132-3.9,3.192C2128.388,750.478,2126.412,751.6,2124.42,752.7ZM1152.106,953.366c-2,1.623-3.953,3.339-5.936,5q-14.1-.337-27.964-.3,9.759-7.1,19.926-13.769,13.18-.568,26.59-.771C1160.461,946.748,1156.241,950.013,1152.106,953.366Zm1.828,2.846c5.4-4.372,10.934-8.609,16.545-12.77q13.686-.146,27.6.06c-.653.553-1.324,1.093-1.974,1.65-5.438,4.693-10.776,9.578-16.05,14.56q-14.54-.784-28.856-1.193C1152.115,957.761,1153.009,956.963,1153.934,956.212Zm38.824-28.383q12.863-.629,25.946-.925-9.289,7.07-18.164,14.533-13.712-.247-27.2-.131Q1182.844,934.362,1192.757,927.829Zm54.275-16.652q12.491-.694,25.189-1.086-9.052,6.95-17.723,14.285-13.359-.151-26.5.017Q1237.3,917.589,1247.032,911.177Zm53.63-16.82c8.188-.506,16.464-.888,24.8-1.193q-8.882,6.814-17.371,14-13.1-.06-25.994.188Q1291.184,900.655,1300.663,894.357Zm53.669-16.947q11.834-.8,23.874-1.334c-5.751,4.432-11.36,9.005-16.879,13.669-8.492.017-16.894.158-25.242.372Q1345.011,883.579,1354.332,877.41Zm52.963-17.065q11.946-.9,24.116-1.519-8.516,6.472-16.8,13.394c-8.408.074-16.763.221-25.028.489C1395.359,868.469,1401.28,864.362,1407.294,860.345Zm665.049-76.62c-1.393,1.388-2.812,2.715-4.213,4.087-3.613,1.794-7.2,3.637-10.85,5.351,2.68-2.877,5.382-5.73,8.02-8.663,3.554-1.415,7.058-2.93,10.576-4.415C2074.689,781.288,2073.539,782.535,2072.343,783.726Zm-43.407,26.78c-2.159,2.357-4.356,4.626-6.539,6.94-3.918,1.827-7.862,3.591-11.828,5.321q4.347-5,8.611-10.111c4.061-1.512,8.059-3.158,12.076-4.764C2030.475,808.753,2029.72,809.648,2028.936,810.506Zm-43.389,26.767c-2.621,3.1-5.292,6.092-7.949,9.119q-6.364,2.771-12.806,5.364l.066-.074c3.032-3.721,5.993-7.523,8.96-11.318q6.566-2.258,13.051-4.7C1986.424,836.193,1985.995,836.743,1985.548,837.273Zm-712.176,107.8q6.458-6.764,13.116-13.206c1.449-1.4,2.943-2.762,4.41-4.144q14.021.619,28.26,1.576l.683.05c-5.588,6.011-11.08,12.153-16.4,18.516-9.8-1.009-19.58-1.941-29.312-2.735Zm-31.075-5.086c4.965-4.529,10.057-8.931,15.215-13.26q13.847.2,27.935.765c-.444.426-.9.835-1.342,1.26-5.322,5.146-10.519,10.5-15.645,15.952q-14.678-1.132-29.133-1.891C1240.323,941.88,1241.292,940.9,1242.3,939.982Zm85.806-19.432c-2.111,2.152-4.147,4.419-6.223,6.621-.865-.061-1.732-.134-2.6-.194-8.748-.6-17.416-1.07-26.036-1.469q8.744-8.117,17.929-15.811,13.561.106,27.354.553Q1333.247,915.326,1328.1,920.551Zm-3.059,9.186q14.84,1.081,29.769,2.481-7.93,9.6-15.433,19.68-15.515-1.881-31.027-3.544Q1316.492,938.759,1325.043,929.737Zm2.043-2.172c1.208-1.261,2.373-2.582,3.593-3.825,4.443-4.533,9-8.941,13.617-13.29,6.643.248,13.313.533,20.039.9,2.74.151,5.5.339,8.241.51-.155.168-.319.325-.477.493-5.322,5.726-10.462,11.667-15.516,17.708Q1341.793,928.659,1327.086,927.564Zm676.8-113.039q-6.905,2.344-13.895,4.493c3.14-4.315,6.214-8.7,9.282-13.092,4.732-1.214,9.428-2.511,14.106-3.845C2010.254,806.275,2007.075,810.412,2003.882,814.526Zm12.013-13.169c4.5-1.308,9-2.645,13.453-4.063-3.056,3.852-6.112,7.708-9.234,11.483-4.448,1.673-8.951,3.228-13.45,4.784Q2011.329,807.51,2015.895,801.357Zm-28.188,18.352c-4.848,1.472-9.705,2.923-14.61,4.261q4.767-6.93,9.437-13.96c.534-.121,1.07-.218,1.6-.339,4.377-1,8.7-2.129,13.033-3.225C1994.042,810.9,1990.906,815.334,1987.707,819.709Zm-3.312,4.429c-3.14,4.231-6.295,8.442-9.509,12.592-4.7,1.636-9.41,3.228-14.163,4.73q4.821-6.628,9.544-13.367Q1977.369,826.208,1984.394,824.138Zm-13.084,17.1c-2.478,3.145-4.928,6.316-7.451,9.407-.611.747-1.24,1.458-1.852,2.2q-6.807,2.7-13.7,5.2c3.167-4.114,6.315-8.24,9.407-12.435C1962.27,844.209,1966.808,842.768,1971.311,841.243Zm-12.547.831c-4.833,1.509-9.705,2.93-14.6,4.3q4.813-6.99,9.506-14.094c.745-.174,1.494-.312,2.237-.486,4.216-1,8.372-2.142,12.552-3.235C1965.276,833.116,1962.029,837.6,1958.764,842.074Zm-2.988,4.127c-3.158,4.265-6.383,8.455-9.621,12.636q-7.067,2.53-14.219,4.858,4.812-6.618,9.505-13.35Q1948.65,848.373,1955.776,846.2Zm-12.83,16.823c-.259.332-.51.677-.769,1.006-2.854,3.611-5.761,7.1-8.656,10.621q-6.888,2.806-13.841,5.414,4.736-6.16,9.357-12.435Q1936.027,865.418,1942.946,863.024Zm-25.135,17.752a490.191,490.191,0,0,1-47.121,14.748c-106.829,27.565-218.637,16.525-326.762,5.847-44.1-4.359-89.714-8.864-134.331-10.678-3.205-.131-6.384-.218-9.571-.322q8.086-7.533,17.276-15.264,18.471-.121,37.384.352c43.791,1.157,88.6,4.935,131.922,8.593,103.436,8.723,210.389,17.745,312.853-8.006,9.4-2.36,18.683-5.009,27.881-7.882Q1922.631,874.525,1917.811,880.776Zm-508.3,12.633c44.557,1.81,90.132,6.313,134.206,10.668,108.314,10.695,220.315,21.758,327.51-5.9,14.643-3.775,29.166-8.291,43.505-13.444q-4.687,5.975-9.5,11.821a489.116,489.116,0,0,1-62.751,21.3c-111.656,29.509-228.61,16.381-341.712,3.684-39.536-4.439-80.256-9-120.431-11.714,5.232-5.465,10.877-11.094,16.924-16.82C1401.334,893.117,1405.407,893.241,1409.51,893.408Zm-34.635,16.072c-3.479-.221-6.965-.456-10.433-.644q-8.828-.483-17.562-.818,8.6-7.98,17.6-15.546,13.391.015,27.014.352Q1383.033,900.891,1374.875,909.481Zm-.006,6.132c1.047-1.123,2.144-2.273,3.223-3.413,40.818,2.689,82.248,7.322,122.458,11.834C1613.835,936.754,1730.974,949.9,1843,920.3a490.189,490.189,0,0,0,58.872-19.673q-4.607,5.521-9.318,10.936a488.924,488.924,0,0,1-78.271,28.6c-116.6,31.494-238.816,16.223-357.013,1.452-31.421-3.922-63.583-7.922-95.639-11.06C1365.951,925.469,1370.355,920.47,1374.869,915.612ZM1903.926,899.8q6.454-2.65,12.839-5.491c-3.015,3.389-6.062,6.665-9.109,9.944q-6.342,3.2-12.764,6.219Q1899.462,905.186,1903.926,899.8Zm3.414-4.137q4.687-5.743,9.261-11.59,6.722-2.449,13.388-5.079c-3.083,3.684-6.208,7.258-9.332,10.835Q1914.037,892.837,1907.34,895.658Zm25.043-17.651q6.284-2.524,12.5-5.23c-2.919,3.269-5.832,6.548-8.784,9.719q-6.319,3.143-12.725,6.1C1926.4,885.1,1929.4,881.6,1932.382,878.007Zm3.533-4.335c2.382-2.917,4.788-5.783,7.141-8.764.674-.855,1.321-1.743,1.992-2.6,4.386-1.549,8.742-3.178,13.08-4.844-2.97,3.54-5.933,7.074-8.945,10.517Q1942.592,870.926,1935.916,873.672Zm25-17.306q6.226-2.434,12.377-5.032c-2.883,3.215-5.8,6.326-8.718,9.451q-6.088,2.972-12.246,5.786C1955.216,863.232,1958.063,859.8,1960.914,856.366Zm16.485-20.521c3.142-4.08,6.214-8.237,9.282-12.4,4.526-1.358,9.052-2.705,13.528-4.181-3.1,3.933-6.268,7.795-9.443,11.643C1986.341,832.623,1981.88,834.256,1977.4,835.845ZM2002.99,818.3c4.285-1.435,8.557-2.9,12.794-4.445-2.833,3.363-5.653,6.742-8.546,10.034-.146.168-.3.325-.441.49q-6.44,2.746-12.952,5.324Q1998.461,824.05,2002.99,818.3Zm20.514-10.862q4.535-5.537,8.98-11.181c4.216-1.368,8.444-2.709,12.615-4.177-2.984,3.514-6.014,6.97-9.055,10.41C2031.9,804.21,2027.7,805.826,2023.5,807.438Zm25.356-16.76q5.94-2.142,11.819-4.405c-2.8,3.068-5.605,6.125-8.453,9.129-3.954,1.8-7.916,3.584-11.918,5.287Q2044.628,795.736,2048.86,790.679Zm21.608-12.083c2.889-3.289,5.791-6.554,8.629-9.907,3.846-1.338,7.7-2.655,11.512-4.07q-4.275,4.636-8.629,9.173C2078.178,775.465,2074.314,777.01,2070.467,778.6Zm-4.538,1.894c-4.162,1.669-8.369,3.245-12.58,4.814q4.508-5.471,8.918-11.06c4.246-1.331,8.48-2.685,12.681-4.107Q2070.477,775.363,2065.929,780.49Zm-16.342,6.216q-6.593,2.4-13.265,4.63,4.651-6.015,9.222-12.123,6.727-1.886,13.376-3.932Q2054.308,781.059,2049.587,786.706Zm-16.271,5.619c-4.66,1.532-9.336,3.027-14.05,4.435q4.723-6.472,9.344-13.051c4.729-1.174,9.413-2.437,14.091-3.722C2039.6,784.131,2036.486,788.262,2033.317,792.325Zm-16.569,5.163c-4.789,1.4-9.577,2.806-14.416,4.087q4.741-6.88,9.365-13.89c.221-.047.442-.087.662-.134,4.673-1.022,9.294-2.162,13.921-3.292Q2021.574,790.937,2016.748,797.488Zm-16.491,4.6c-4.967,1.294-9.95,2.545-14.971,3.7q4.768-7.3,9.428-14.7,7.523-1.4,15.01-3.007C2006.6,792.784,2003.455,797.468,2000.256,802.088Zm-16.712,4.137-.027.007c-5.066,1.153-10.146,2.209-15.233,3.215q4.759-7.669,9.4-15.435,7.72-1.217,15.409-2.632Q1988.383,798.862,1983.544,806.225Zm-2.7,4.14q-4.709,7.106-9.547,14.068c-4.977,1.338-9.959,2.665-14.992,3.862q4.79-7.337,9.449-14.8C1970.792,812.534,1975.819,811.478,1980.84,810.365Zm-26.009,18.292c-92.708,21.815-189.464,16.766-283.043,11.875-41.623-2.172-84.663-4.422-126.746-4.271q-40.672.146-79.013,3.094,8.153-5.215,16.951-10.373a1060.2,1060.2,0,0,1,107.258-7.355c41.018-.795,83.02.644,123.636,2.032,82.657,2.829,167.91,5.713,250.492-9.91Q1959.652,821.251,1954.831,828.657Zm-409.78,10.916c42.011-.147,85.012,2.1,126.6,4.268,92.681,4.845,188.469,9.8,280.556-11.241q-4.741,7.166-9.61,14.215c-5.14,1.422-10.3,2.8-15.5,4.063-97.433,23.783-199.241,16.769-297.691,9.99-42.531-2.934-86.506-5.961-129.513-6.464q-29.067-.342-57.158.821c5.555-4.036,11.339-8.07,17.434-12.093Q1501.259,839.749,1545.052,839.573Zm-45.184,17.943c42.938.5,86.876,3.53,129.37,6.46,98.638,6.792,200.639,13.819,298.449-10.054q6.122-1.493,12.183-3.141-4.746,6.789-9.631,13.447-15.483,4.958-31.346,8.971c-102.088,25.657-208.845,16.652-312.093,7.946-43.359-3.658-88.2-7.443-132.053-8.6q-17.147-.453-33.913-.389,8.252-6.8,17.431-13.659Q1468.4,857.174,1499.868,857.516Zm-88.811,17.648q-8.538,7.262-16.8,15.013c-8.936-.248-17.782-.365-26.566-.4q8.7-7.186,17.794-13.987Q1398.154,875.325,1411.057,875.164Zm-53,17.326q-8.672,7.463-16.947,15.331-13.592-.473-26.969-.624,8.891-7.337,18.206-14.275Q1345.093,892.545,1358.062,892.49Zm-52.942,17.172q-8.856,7.588-17.293,15.589-13.927-.578-27.628-.791,9.026-7.468,18.456-14.517Q1291.777,909.641,1305.12,909.662Zm-53.356,17.017c-3.936,3.37-7.833,6.779-11.655,10.269-1.995,1.82-3.93,3.745-5.9,5.609q-14.254-.684-28.281-1,9.227-7.6,18.9-14.785Q1238.181,926.543,1251.764,926.679ZM1198.112,948.1c1.759-1.515,3.563-2.99,5.349-4.482q14.2.292,28.627.955c-5.922,5.673-11.763,11.483-17.446,17.514q-15.01-1.247-29.789-2.105Q1191.4,953.9,1198.112,948.1Zm39.092-3.275q14.6.739,29.434,1.86-8.484,9.122-16.554,18.764c-7.054-.778-14.1-1.519-21.122-2.183-3.208-.305-6.357-.509-9.55-.788Q1228.121,953.364,1237.2,944.827Zm34.339,2.229c.817.064,1.625.117,2.445.184,9.225.751,18.5,1.636,27.789,2.582-5.361,6.477-10.525,13.172-15.585,19.971q-15.766-2.042-31.507-3.822C1260.175,959.5,1265.777,953.168,1271.544,947.056Zm35.115,3.255q15.6,1.635,31.241,3.54-7.518,10.249-14.565,21.014-16.267-2.318-32.613-4.476Q1298.459,960.106,1306.659,950.312Zm36.066,4.117c23.674,2.907,47.283,6.138,70.492,9.317,123.568,16.92,251.339,34.411,373.314.8a491.71,491.71,0,0,0,88.918-34.183q-4.338,4.576-8.775,9.052a493.936,493.936,0,0,1-108.791,45.39c-126.814,35.591-259.941,15.851-388.679-3.239q-20.5-3.042-41.346-6.058C1332.646,968.3,1337.623,961.3,1342.724,954.429Zm443.359,8.059c-121.641,33.519-249.243,16.045-372.64-.848-22.8-3.121-45.986-6.3-69.24-9.162q7.608-10.133,15.657-19.763c32.559,3.158,65.253,7.225,97.18,11.211,118.374,14.791,240.775,30.083,357.724-1.5a490.134,490.134,0,0,0,74.016-26.589q-4.5,5.064-9.106,10.021A490.807,490.807,0,0,1,1786.083,962.488ZM1891.224,914.7q6.051-2.77,12.034-5.709c-2.889,3.044-5.8,5.984-8.713,8.921q-5.984,3.329-12.048,6.487Q1886.911,919.6,1891.224,914.7Zm15.215-7.3q5.376-2.691,10.7-5.5c-2.46,2.407-4.9,4.878-7.376,7.215l-.081.074q-5.577,3.354-11.234,6.574Q1902.462,911.646,1906.439,907.4Zm4.4-4.744c2.9-3.152,5.778-6.333,8.646-9.582q5.9-2.655,11.736-5.468c-2.764,2.9-5.519,5.83-8.3,8.64Q1916.918,899.53,1910.837,902.651Zm24.086-16.843q5.273-2.59,10.486-5.307c-2.54,2.477-5.1,4.848-7.648,7.248q-5.192,3.078-10.457,6.028Q1931.129,889.855,1934.923,885.808Zm4.827-5.159c2.785-3.031,5.543-6.139,8.3-9.257q5.836-2.58,11.608-5.3c-2.788,2.92-5.609,5.719-8.42,8.549Q1945.528,877.715,1939.75,880.649Zm23.82-16.394q4.982-2.4,9.914-4.925c-2.326,2.26-4.648,4.519-6.989,6.715q-5.1,2.987-10.275,5.857C1958.68,869.38,1961.131,866.843,1963.57,864.255Zm5.1-5.505c2.684-2.917,5.352-5.847,8.006-8.841q5.577-2.4,11.092-4.935c-2.555,2.655-5.108,5.321-7.687,7.9Q1974.415,855.883,1968.672,858.75Zm12.448-13.937c1.846-2.122,3.712-4.191,5.54-6.353,1.094-1.291,2.144-2.632,3.229-3.936q6.051-2.314,12.039-4.764c-2.85,3.165-5.7,6.336-8.587,9.414Q1987.268,842.076,1981.12,844.813Zm24.741-16.7q5.533-2.328,11-4.791c-2.725,2.813-5.48,5.528-8.229,8.26q-5.412,2.817-10.886,5.5Q2001.832,832.655,2005.861,828.11Zm15.809-6.977q4.638-2.137,9.222-4.379c-2.227,2.126-4.451,4.258-6.693,6.33q-4.705,2.665-9.464,5.227C2017.061,825.951,2019.368,823.551,2021.67,821.134Zm5.74-6.088c.942-1.016,1.905-1.991,2.844-3.017,1.726-1.887,3.4-3.845,5.1-5.756,3.635-1.489,7.231-3.058,10.827-4.627-2.624,2.689-5.239,5.4-7.893,8.016Q2032.882,812.417,2027.41,815.045Zm24.235-15.821c2.955-1.334,5.927-2.635,8.858-4.023-2.3,2.166-4.613,4.248-6.924,6.356q-4.49,2.489-9.031,4.875C2046.918,804.039,2049.3,801.672,2051.645,799.224Zm23.331-14.8c2.179-2.186,4.311-4.439,6.464-6.665,3.006-1.311,5.969-2.7,8.948-4.063-2.123,1.975-4.246,3.949-6.387,5.884C2081,781.208,2078.011,782.861,2074.976,784.426Zm13.009-13.414c2.564-2.729,5.063-5.545,7.588-8.328,3.477-1.328,6.959-2.652,10.4-4.047q-3.873,3.872-7.812,7.654C2094.794,767.912,2091.389,769.464,2087.984,771.013Zm24.2-14.973q4.28-1.8,8.513-3.668c-1.649,1.509-3.262,3.061-4.926,4.553-.445.4-.895.771-1.339,1.163q-4.391,2.3-8.831,4.523C2107.8,760.429,2110.007,758.26,2112.18,756.04Zm49.251-27.729c-.6.329-1.193.677-1.789,1-1.19.647-2.416,1.237-3.611,1.874,1.315-1.19,2.6-2.424,3.9-3.631,1.729-.754,3.482-1.485,5.2-2.256C2163.9,726.3,2162.677,727.322,2161.431,728.311Zm-16.277,8.532c-2.749,1.385-5.528,2.726-8.3,4.063,2.179-2.125,4.365-4.248,6.518-6.41,2.788-1.116,5.588-2.216,8.349-3.369C2149.552,733.068,2147.34,734.936,2145.154,736.843Zm-16.02,7.724q-5.211,2.414-10.5,4.714c2.627-2.759,5.259-5.508,7.845-8.318q5.174-1.891,10.292-3.855C2134.235,739.6,2131.713,742.117,2129.134,744.568Zm-16.53,7.315q-5.711,2.419-11.486,4.717c2.835-3.2,5.612-6.467,8.4-9.726q5.9-1.956,11.724-4.03C2118.391,745.9,2115.5,748.9,2112.6,751.883Zm-16.453,6.651c-4.165,1.609-8.345,3.188-12.564,4.7,3.035-3.654,6.071-7.305,9.049-11.03,4.216-1.26,8.4-2.588,12.565-3.933Q2100.714,753.452,2096.151,758.534Zm-16.512,6.078c-4.425,1.552-8.858,3.084-13.34,4.529q4.656-5.974,9.2-12.066c4.526-1.214,9.01-2.5,13.486-3.815Q2084.36,759,2079.639,764.613Zm-16.685,5.568c-4.618,1.462-9.237,2.91-13.909,4.258,3.167-4.315,6.324-8.64,9.422-13.028,4.693-1.116,9.338-2.33,13.978-3.55Q2067.748,764.081,2062.954,770.181ZM2046.3,775.19c-4.816,1.361-9.634,2.712-14.5,3.956q4.763-6.879,9.422-13.866c4.9-1.029,9.765-2.142,14.616-3.279Q2051.115,768.649,2046.3,775.19Zm-16.849,4.529q-7.357,1.846-14.795,3.5,4.75-7.247,9.4-14.594,7.5-1.358,14.953-2.89Q2034.279,772.783,2029.449,779.719Zm-16.769,3.963c-.319.07-.632.154-.951.224-4.777,1.043-9.565,2.008-14.359,2.927q4.732-7.614,9.362-15.328,7.733-1.192,15.436-2.561Q2017.472,776.362,2012.681,783.682Zm-16.953,3.48q-7.791,1.473-15.612,2.742,4.687-7.925,9.27-15.938,7.907-1.031,15.788-2.226Q2000.508,779.5,1995.727,787.162Zm-16.936,2.94c-73.625,11.791-149.263,10.7-222.727,9.618-39.658-.583-80.668-1.187-120.741.258a1062.4,1062.4,0,0,0-118.073,10.581c4.8-2.364,9.762-4.7,14.822-7.024q68.831-13.563,148.548-17.8c38.964-2.075,78.873-2.343,117.47-2.6,62.59-.419,126.844-.885,190-9Q1983.5,782.165,1978.791,790.1Zm-343.364,13.581c40-1.438,80.972-.838,120.592-.255,72.638,1.07,147.394,2.126,220.348-9.219q-4.687,7.825-9.5,15.536c-83.223,16.216-169.4,13.266-252.9,10.406-40.655-1.391-82.7-2.833-123.788-2.035q-51.665,1-99.437,6.393c5.1-2.87,10.4-5.713,15.841-8.539A1046.6,1046.6,0,0,1,1635.427,803.683Zm-154.693,22.04q-9.115,1.126-18.089,2.4,6.888-3.47,13.96-6.785,8.641-1.7,17.442-3.245Q1487.353,821.8,1480.735,825.723Zm-7.436,4.466q-7.76,4.752-15.385,9.823-10.658.9-21.128,2.018c5.316-3.051,10.743-6.011,16.232-8.914C1459.72,832.076,1466.471,831.088,1473.3,830.189Zm-21.083,13.645c-5.557,3.788-11.07,7.661-16.509,11.7q-11.722.553-23.269,1.365c5.7-3.7,11.527-7.282,17.434-10.8Q1440.932,844.837,1452.215,843.834Zm-48.228,13.709q-10.34.814-20.531,1.837,8.475-4.868,17.249-9.468c6.288-.932,12.654-1.777,19.05-2.582Q1411.735,852.309,1403.988,857.543Zm-5.164,3.473c-5.62,3.885-11.11,7.9-16.524,11.982-7.743.305-15.442.671-23.054,1.15q8.762-5.687,17.872-11.053Q1387.874,861.938,1398.824,861.016Zm-47.6,13.7c-7.344.523-14.643,1.1-21.864,1.783q8.565-4.943,17.41-9.618,10.291-1.469,20.773-2.7C1362,867.59,1356.583,871.12,1351.225,874.711Zm-4.86,3.265c-5.817,4-11.5,8.117-17.091,12.321q-12.2.4-24.184,1.1,8.958-5.854,18.26-11.362Q1334.759,878.875,1346.365,877.976Zm-48.723,13.859q-11.083.714-21.969,1.693,8.985-5.15,18.269-10.017,10.175-1.383,20.514-2.558Q1305.9,886.244,1297.642,891.836Zm-4.5,3.037q-8.913,6.135-17.481,12.623-12.335.322-24.467.939,9.289-6.024,18.945-11.7C1277.731,896.013,1285.412,895.413,1293.14,894.873Zm-49.03,13.94q-11.668.679-23.137,1.643,9.244-5.306,18.79-10.306,10.85-1.408,21.909-2.545Q1252.731,903.057,1244.11,908.813ZM1240,911.573q-9.245,6.291-18.116,12.941c-8.5.168-16.948.419-25.314.8q9.464-6.135,19.285-11.9Q1227.827,912.347,1240,911.573ZM1189.9,925.657q-12.035.628-23.886,1.532,9.491-5.426,19.279-10.53,11.248-1.4,22.7-2.511Q1198.781,919.74,1189.9,925.657Zm-3.757,2.518q-9.437,6.4-18.5,13.169-13.162.176-26.1.7,9.7-6.261,19.762-12.133Q1173.618,928.882,1186.141,928.175Zm-50.81,14.138q-12.424.568-24.667,1.428,9.75-5.542,19.807-10.738,11.669-1.383,23.528-2.488Q1144.5,936.242,1135.331,942.312Zm-3.444,2.29q-9.692,6.523-19.011,13.44-13.529.1-26.835.563,9.983-6.412,20.341-12.4Q1119.022,945.234,1131.888,944.6Zm-22.142,19.72c1.938-1.472,3.915-2.9,5.877-4.348q14.061-.06,28.346.245c-6.22,5.281-12.371,10.685-18.379,16.314q-14.871-.9-29.515-1.4Q1102.842,969.59,1109.746,964.322Zm39.25-3.949q14.473.387,29.178,1.156-8.99,8.575-17.6,17.661-15.3-1.363-30.374-2.333Q1139.427,968.333,1149,960.373Zm33.958,1.428q14.88.845,30,2.078c-5.719,6.135-11.259,12.492-16.7,18.952-4.153-.483-8.31-.972-12.451-1.418-6.306-.68-12.532-1.217-18.781-1.8C1170.878,973.515,1176.839,967.547,1182.954,961.8Zm34.721,2.467c3.724.318,7.4.563,11.148.919q9.853.93,19.771,2.028c-5.134,6.185-10.182,12.462-15.033,18.918-.325.436-.635.889-.96,1.324q-16.025-2.2-32-4.13Q1208.928,973.551,1217.675,964.268Zm63.717,18.841c2.612-3.715,5.331-7.329,8.036-10.956q16.409,2.152,32.768,4.486-7.075,10.863-13.683,22.214-17-2.7-34.2-5.331C1276.649,990.023,1278.986,986.526,1281.392,983.11Zm45.327-5.823c14.181,2.032,28.3,4.117,42.262,6.189,128.9,19.113,262.183,38.877,389.317,3.2a494.369,494.369,0,0,0,103.4-42.309c-2.711,2.669-5.43,5.324-8.188,7.929a498.037,498.037,0,0,1-123.821,54.841c-132.118,37.7-270.9,15.623-405.119-5.733l-11.658-1.85Q1319.585,988.18,1326.719,977.286ZM1865.045,942.6c.084-.08.164-.164.245-.248,3.205-1.783,6.4-3.577,9.574-5.434-2.284,2.089-4.612,4.117-6.929,6.162q-5.032,3.329-10.132,6.538C1860.224,947.291,1862.663,944.984,1865.045,942.6Zm4.991-5.1q4.159-4.255,8.229-8.593,5.578-2.826,11.1-5.787c-.766.754-1.527,1.562-2.293,2.31-1.873,1.817-3.79,3.574-5.686,5.364Q1875.75,934.227,1870.037,937.508Zm17.8-11.07c1.816-1.764,3.611-3.651,5.421-5.458,3.071-1.687,6.13-3.393,9.169-5.146-2.111,1.921-4.225,3.832-6.366,5.716-3.175,2.082-6.357,4.154-9.574,6.162C1886.936,927.283,1887.4,926.87,1887.84,926.438Zm27.431-20.7c2.141-2.072,4.281-4.144,6.41-6.273q4.374-2.368,8.694-4.838-3.023,2.741-6.094,5.421C1921.3,901.984,1918.291,903.869,1915.271,905.739Zm34.921-27.732c2.713-1.448,5.406-2.937,8.092-4.435-1.046.942-2.084,1.945-3.133,2.873-.755.667-1.529,1.308-2.29,1.971-2.841,1.821-5.692,3.627-8.566,5.391Q1947.25,880.945,1950.192,878.007Zm23.26-16.1q2.817-2.721,5.623-5.5c2.5-1.308,4.986-2.619,7.457-3.97-1.756,1.569-3.515,3.131-5.274,4.667C1978.672,858.736,1976.063,860.322,1973.451,861.908Zm11.989-11.895q3.479-3.56,6.932-7.215,4.821-2.278,9.6-4.653c-2.278,2.2-4.571,4.328-6.861,6.464Q1990.306,847.369,1985.44,850.013Zm22.47-14.872c2.379-1.224,4.74-2.484,7.1-3.748-1.545,1.365-3.089,2.7-4.636,4.033q-3.677,2.293-7.392,4.53C2004.633,838.369,2006.27,836.757,2007.91,835.141Zm15.445-8.315q1.078-.608,2.156-1.224c-.1.08-.194.164-.292.241-.948.637-1.912,1.251-2.863,1.884Zm9.094-8.512c1.672-1.6,3.352-3.188,5.015-4.814,2.141-1.079,4.288-2.155,6.414-3.265q-2.335,2.042-4.678,4.047C2036.963,815.652,2034.7,816.976,2032.449,818.314Zm20.54-12.968c.34-.188.686-.362,1.026-.553-.51.338-1.02.68-1.532,1.016C2052.652,805.658,2052.819,805.5,2052.989,805.346Zm9.72-8.961c1.607-1.522,3.193-3.1,4.792-4.643,2.045-1.006,4.1-2,6.133-3.034-1.464,1.264-2.922,2.541-4.392,3.782C2067.068,793.8,2064.9,795.111,2062.709,796.385Zm20.8-12.847c.176-.094.349-.191.525-.285-.269.171-.531.352-.8.523C2083.324,783.7,2083.417,783.618,2083.506,783.538Zm9.908-9.113c.728-.684,1.47-1.334,2.195-2.021s1.449-1.438,2.182-2.142c1.938-.922,3.885-1.824,5.812-2.769-1.363,1.153-2.74,2.256-4.109,3.39C2097.472,772.069,2095.454,773.266,2093.414,774.425Zm100.606-67.544c-1.923,1.009-3.84,2.028-5.763,3.01,1.228-1.093,2.457-2.182,3.679-3.282,1.765-.727,3.5-1.5,5.25-2.236C2196.131,705.2,2195.075,706.063,2194.02,706.881Zm-17.079,8.656c-2.77,1.334-5.543,2.665-8.343,3.956,2.093-2.012,4.135-4.094,6.208-6.132,2.841-1.07,5.63-2.2,8.441-3.3C2181.151,711.9,2179.058,713.734,2176.941,715.538Zm-16.709,7.7c-3.375,1.489-6.745,2.984-10.164,4.412,2.644-2.729,5.292-5.451,7.9-8.231,3.441-1.18,6.828-2.427,10.227-3.664C2165.569,718.29,2162.895,720.754,2160.232,723.239Zm-16.405,6.933c-3.936,1.592-7.868,3.185-11.858,4.7,2.91-3.235,5.817-6.467,8.68-9.766,3.944-1.23,7.836-2.535,11.726-3.832C2149.537,724.251,2146.714,727.252,2143.827,730.172Zm-16.969,6.554c-4.136,1.522-8.274,3.041-12.463,4.476,3.026-3.607,6-7.285,8.971-10.959,4.273-1.21,8.5-2.484,12.72-3.772C2133.043,729.937,2129.954,733.333,2126.859,736.726Zm-16.81,5.907c-4.41,1.475-8.832,2.93-13.3,4.308,3.142-4,6.276-8,9.359-12.072,4.484-1.14,8.927-2.344,13.354-3.564Q2114.8,737.018,2110.049,742.633Zm-16.885,5.384q-6.9,2.082-13.87,4.016,4.75-6.427,9.392-12.974,7.1-1.614,14.113-3.369C2099.625,739.847,2096.4,743.937,2093.164,748.017Zm-16.99,4.878c-4.759,1.291-9.556,2.5-14.371,3.688,3.187-4.573,6.36-9.163,9.481-13.809q7.29-1.464,14.509-3.061Q2081.03,746.361,2076.174,752.9Zm-34.089,8.207c-.719.151-1.422.329-2.144.479-4.356.908-8.727,1.75-13.1,2.565q4.723-7.558,9.359-15.2,7.715-1.172,15.4-2.491Q2046.893,753.829,2042.085,761.1Zm-17.121,3.41q-7.809,1.433-15.651,2.669,4.647-7.825,9.189-15.747,7.965-1.036,15.9-2.223Q2029.741,756.915,2024.965,764.512Zm-17.207,2.9q-7.97,1.247-15.964,2.313,4.544-8.026,8.978-16.143,8.122-.9,16.217-1.951Q2012.423,759.572,2007.758,767.412Zm-17.243,2.478c-63.887,8.452-129.021,8.914-192.446,9.34-38.633.255-78.58.526-117.61,2.6A1088.031,1088.031,0,0,0,1547.7,796.65c3.185-1.354,6.372-2.712,9.654-4.047q76.859-18.3,168.462-24.816c37.956-2.709,76.839-3.882,114.441-5.015,52.444-1.579,106.128-3.208,159.255-9.045Q1995.059,761.848,1990.515,769.89Zm-461.135,30.2c-1.3.262-2.585.54-3.882.808,1.726-.49,3.474-.962,5.212-1.438C1530.266,799.664,1529.824,799.878,1529.38,800.086ZM1504.1,812.618c-4.478.734-8.915,1.509-13.337,2.3q5.783-2.535,11.679-4.982c4.145-.975,8.3-1.938,12.511-2.856C1511.323,808.9,1507.7,810.717,1504.1,812.618Zm-44.268,12.2c-3.4,1.723-6.751,3.487-10.087,5.263q-5.989.951-11.915,1.971,5.568-2.439,11.241-4.791C1452.636,826.434,1456.214,825.609,1459.828,824.821Zm10.793-6.068c2.251-.842,4.547-1.643,6.819-2.464-1.38.644-2.77,1.281-4.141,1.931C1472.407,818.4,1471.51,818.569,1470.621,818.753Zm-30.141,16.394q-7.026,3.923-13.865,8.019-8.592,1.016-17.046,2.176,7.487-3.772,15.182-7.366Q1432.556,836.5,1440.48,835.147ZM1397.5,847.069q-7.383,1.116-14.669,2.347,6.025-2.665,12.168-5.217,6.959-1.594,14.022-3.078Q1403.2,844.044,1397.5,847.069Zm-8.709,4.71q-7.6,4.214-14.977,8.636-9.593,1.066-19.052,2.313,7.939-4.038,16.1-7.862C1376.78,853.771,1382.767,852.755,1388.791,851.78Zm-45.336,12.542q-7.044,1.031-14,2.169,7.2-3.158,14.544-6.169c4.055-.895,8.125-1.777,12.23-2.611Q1349.77,860.943,1343.455,864.322Zm-7.8,4.218q-7.787,4.325-15.334,8.881-9.379.981-18.63,2.136,8.323-4.189,16.861-8.167Q1327.039,869.88,1335.658,868.539Zm-44.679,12.445q-8.167,1.136-16.22,2.41,7.375-3.233,14.89-6.313,7.469-1.62,15.051-3.1Q1297.754,877.4,1290.978,880.984Zm-7.46,3.986q-8.31,4.546-16.357,9.34-10.242,1.006-20.317,2.236c5.755-2.9,11.569-5.743,17.487-8.475C1270.679,886.975,1277.063,885.929,1283.518,884.97Zm-46.651,12.84q-8.726,1.161-17.317,2.5,7.813-3.424,15.791-6.668,7.956-1.685,16.032-3.225C1246.474,892.815,1241.653,895.293,1236.867,897.81Zm-6.887,3.681q-8.61,4.687-16.957,9.639-10.7.985-21.217,2.229c5.972-3.007,12.007-5.951,18.149-8.774Q1219.88,902.926,1229.98,901.491Zm-47.45,12.975c-6.187.788-12.314,1.66-18.412,2.575q8.283-3.61,16.748-7.017c5.662-1.17,11.354-2.3,17.106-3.352Q1190.154,910.463,1182.53,914.466Zm-6.372,3.4q-8.945,4.828-17.624,9.95-11.11.95-22.046,2.162c6.217-3.111,12.5-6.149,18.892-9.062C1162.24,919.807,1169.179,918.807,1176.159,917.862Zm-48.147,13.092q-9.9,1.2-19.646,2.618,8.748-3.786,17.69-7.335,9.106-1.831,18.361-3.453Q1136.106,926.751,1128.011,930.954Zm-5.957,3.084c-6.208,3.309-12.29,6.745-18.307,10.252q-11.588.92-23.006,2.109,9.647-4.788,19.542-9.28Q1111.075,935.44,1122.054,934.038Zm-22.541,12.713q-9.773,5.819-19.175,12.009-12.9.508-25.576,1.365,10.081-5.683,20.484-10.983Q1087.276,947.794,1099.513,946.751Zm-51.272,13.856c-7.973.58-15.913,1.217-23.761,1.995q10-4.908,20.254-9.491,11.217-1.674,22.616-3.068Q1057.654,955.158,1048.241,960.607Zm-3.867,2.246q-10.054,5.924-19.774,12.24-13.274.432-26.343,1.21,10.412-5.8,21.161-11.191Q1031.784,963.811,1044.374,962.853Zm-52.128,13.829q-12.532.83-24.861,1.981,10.385-5.029,21.053-9.7,11.633-1.655,23.469-3Q1001.929,971.146,992.246,976.683Zm-15.021,11.938c5.79-3.567,11.679-7.007,17.63-10.376q13.355-.85,26.93-1.334c-.567.372-1.145.731-1.712,1.106-6.124,4.073-12.168,8.351-18.164,12.716q-14.258-.09-28.293.2C974.825,990.174,976.014,989.372,977.225,988.621Zm44.17-8.1c1.944-1.287,3.924-2.534,5.886-3.8q13.918-.417,28.06-.459c-6.6,4.915-13.125,9.95-19.518,15.207q-14.746-.538-29.265-.687Q1013.915,985.513,1021.395,980.525Zm39.032-4.294q14.352.025,28.931.443-9.562,8.036-18.784,16.575-15.2-1.006-30.177-1.609Q1050.254,983.653,1060.427,976.23Zm33.7.536q14.768.488,29.766,1.368c-6.127,5.8-12.084,11.8-17.941,17.926q-15.617-1.484-31-2.545C1081.233,987.77,1087.614,982.158,1094.128,976.766Zm34.31,1.69q15.188.956,30.618,2.317c-5.152,5.485-10.23,11.05-15.146,16.776-.686.8-1.345,1.633-2.027,2.434-1.079-.131-2.171-.3-3.25-.426q-14.334-1.73-28.477-3.1Q1119.1,987.213,1128.438,978.456Zm17.845,21.674c5.567-6.487,11.348-12.763,17.219-18.932,6.7.613,13.385,1.2,20.15,1.928,3.751.4,7.52.848,11.285,1.284-2.069,2.478-4.177,4.915-6.2,7.436q-5.157,6.417-10.126,13.065-16.378-2.363-32.655-4.389C1146.065,1000.392,1146.172,1000.258,1146.283,1000.131Zm45.034-5.666c2.6-3.242,5.3-6.39,7.97-9.558q16.043,1.9,32.169,4.13-7.809,10.54-15.156,21.624-16.785-2.68-33.582-5.133C1185.548,1001.794,1188.4,998.089,1191.317,994.465Zm44.435-4.848q16.579,2.3,33.141,4.821c-4.8,7.342-9.413,14.892-13.9,22.566q-17.21-2.887-34.554-5.673Q1227.87,1000.208,1235.753,989.617Zm37.494,5.478q17.236,2.625,34.324,5.347-6.592,11.415-12.729,23.287-7.692-1.3-15.367-2.6c-6.718-1.14-13.521-2.28-20.3-3.419C1263.714,1010.011,1268.386,1002.451,1273.246,995.1Zm38.722,6.048c4.132.654,8.271,1.311,12.383,1.964,134.361,21.38,273.3,43.483,405.713,5.7A498.4,498.4,0,0,0,1847.32,958c-2.373,2.173-4.729,4.375-7.138,6.5a502.822,502.822,0,0,1-138.7,64.956c-131.144,38.018-268.689,17.521-402.412-5.009C1303.194,1016.5,1307.526,1008.764,1311.969,1001.143Zm389.856,29.788a502.663,502.663,0,0,0,129.94-59.2c-1.909,1.619-3.814,3.245-5.74,4.834-46.99,33.757-98.766,59.337-152.737,75.208-125.932,37.046-257.625,20.588-386.634-1.7,3.757-8.207,7.633-16.3,11.709-24.212C1432.382,1048.448,1570.252,1069.073,1701.825,1030.931Zm144.636-70.7c1.825-1.663,3.667-3.306,5.471-4.992,2.293-1.392,4.565-2.823,6.837-4.251-1.473,1.24-2.94,2.481-4.425,3.7Q1850.427,957.5,1846.461,960.232Zm29.13-22.271c1.5-1.368,2.961-2.776,4.446-4.16,2.033-1.224,4.073-2.434,6.091-3.685-1.273,1.066-2.576,2.092-3.858,3.145C1880.052,934.836,1877.833,936.418,1875.591,937.961Zm29-22.147c1.267-1.157,2.54-2.307,3.8-3.477,1.679-1,3.36-2,5.027-3.017-.963.8-1.908,1.626-2.878,2.417C1908.574,913.125,1906.576,914.456,1904.594,915.814Zm29.246-22.09c.948-.872,1.885-1.8,2.833-2.685,1.521-.9,3.023-1.831,4.535-2.739-.769.637-1.551,1.261-2.326,1.894C1937.2,891.367,1935.534,892.567,1933.84,893.723Zm58.825-44.049c.579-.529,1.148-1.093,1.726-1.626q1.445-.82,2.883-1.65c-.313.251-.629.5-.945.754C1995.107,847.988,1993.9,848.849,1992.665,849.674Zm216.517-154.966c-1.339.607-2.666,1.277-4.008,1.874-1.455.647-2.952,1.244-4.418,1.881q3.274-3.068,6.521-6.165c2.77-.962,5.549-1.918,8.283-2.91C2213.436,691.195,2211.31,692.948,2209.182,694.708Zm-17.028,7.416c-3.331,1.378-6.7,2.715-10.075,4.043,2.621-2.658,5.191-5.377,7.773-8.08,3.438-1.093,6.875-2.183,10.262-3.319Q2196.165,698.485,2192.154,702.124Zm-17.008,6.755c-3.724,1.412-7.5,2.766-11.271,4.114,2.943-3.215,5.9-6.414,8.8-9.692,3.8-1.1,7.594-2.206,11.339-3.359C2181.086,702.959,2178.119,705.923,2175.146,708.88Zm-16.766,6.082c-4.192,1.455-8.432,2.843-12.684,4.218,3.086-3.627,6.166-7.268,9.2-10.963,4.27-1.123,8.531-2.26,12.738-3.446C2164.573,708.2,2161.5,711.608,2158.38,714.961Zm-17.323,5.733c-4.338,1.368-8.727,2.665-13.128,3.949,3.148-3.956,6.238-7.982,9.332-12.009,4.517-1.076,9.019-2.166,13.474-3.309C2147.548,713.167,2144.3,716.926,2141.057,720.694Zm-17.132,5.136c-4.594,1.311-9.234,2.551-13.888,3.772q4.808-6.437,9.538-12.968c4.7-1.009,9.386-2.032,14.023-3.111Q2128.8,719.723,2123.925,725.83Zm-17.251,4.67c-4.753,1.22-9.55,2.37-14.363,3.5,3.2-4.546,6.348-9.146,9.482-13.759,4.911-.939,9.8-1.9,14.649-2.92C2113.22,721.757,2109.956,726.135,2106.673,730.5Zm-34.658,7.946c-1.288.262-2.558.557-3.853.811-3.808.755-7.627,1.452-11.449,2.142q4.718-7.5,9.332-15.1c5.218-.781,10.409-1.649,15.606-2.518Q2076.888,731.171,2072.015,738.446Zm-17.443,3.353q-7.823,1.388-15.68,2.6,4.633-7.75,9.183-15.576c5.322-.7,10.629-1.462,15.934-2.243Q2059.34,734.233,2054.572,741.8Zm-17.466,2.87q-8,1.232-16.035,2.3,4.508-7.925,8.918-15.928c5.451-.634,10.9-1.257,16.33-1.965Q2041.766,736.922,2037.106,744.668Zm-17.553,2.494q-8.171,1.076-16.363,2.015,4.356-8.026,8.623-16.126c5.573-.57,11.131-1.2,16.694-1.841Q2024.075,739.222,2019.553,747.162Zm-17.625,2.159c-53.914,6.074-108.48,7.741-161.768,9.344-37.634,1.133-76.55,2.306-114.571,5.025q-76.309,5.456-142.247,19.006c1.347-.486,2.657-.979,4.016-1.462,54.713-14.839,115.651-25.215,183.665-31.39,37.112-3.369,75.125-5.5,111.883-7.557,42.053-2.353,84.959-4.8,127.682-9.119Q2006.3,741.28,2001.929,749.322Zm-576.223,83.757c-1.4.647-2.788,1.3-4.18,1.961-2.269.439-4.55.865-6.8,1.318,1-.372,2.013-.728,3.014-1.1C1420.384,834.524,1423.034,833.79,1425.706,833.079Zm-52.563,16.461c-1.828.845-3.623,1.72-5.436,2.578-1.747.329-3.48.674-5.218,1.012,2.582-.959,5.167-1.918,7.776-2.85C1371.22,850.029,1372.186,849.791,1373.143,849.54Zm-49.692,15.633q-4.141,1.861-8.238,3.772-4.522.825-9,1.693c3.158-1.183,6.318-2.36,9.514-3.5C1318.29,866.467,1320.872,865.82,1323.451,865.173Zm-52.667,16.22c-3.128,1.391-6.244,2.793-9.327,4.231q-5.117.9-10.191,1.854c3.366-1.254,6.739-2.5,10.15-3.7C1264.531,882.969,1267.638,882.16,1270.784,881.393Zm-53.18,16.223q-5.26,2.313-10.451,4.7c-3.9.667-7.785,1.348-11.643,2.069q5.738-2.138,11.557-4.177Q1212.308,898.883,1217.6,897.616Zm-52.826,15.925q-5.93,2.56-11.759,5.233-6.83,1.122-13.578,2.347,6.422-2.374,12.943-4.62Q1158.542,914.972,1164.778,913.541Zm-54.438,16.039q-6.409,2.736-12.7,5.606-7.357,1.167-14.616,2.461,7.107-2.6,14.339-5.049Q1103.811,931.038,1110.339,929.579Zm-20.552,9.257q-8.7,4.113-17.189,8.472-10.291,1.182-20.43,2.592,9.213-3.947,18.641-7.634C1077.079,941.045,1083.415,939.915,1089.787,938.836Zm-47.616,12.508q-8.113,1.232-16.122,2.622,7.813-2.826,15.77-5.454,7.143-1.685,14.369-3.245Q1049.112,948.223,1042.171,951.344ZM1035,954.629q-9.231,4.285-18.239,8.858c-7.177.775-14.33,1.586-21.4,2.531q9.723-4.114,19.664-7.936C1021.621,956.846,1028.291,955.709,1035,954.629Zm-49.119,12.777c-5.814.845-11.634,1.686-17.374,2.642q8.533-3.042,17.237-5.86c5.245-1.2,10.516-2.36,15.832-3.456Q993.647,963.965,985.878,967.406Zm-6.426,2.88q-9.562,4.35-18.885,9.008c-7.654.771-15.23,1.656-22.768,2.612,6.664-2.769,13.388-5.458,20.2-8.019Q968.647,971.961,979.452,970.286Zm-49.9,12.636c-6.488.888-12.893,1.9-19.291,2.93q8.842-3.093,17.833-5.971c6-1.328,11.989-2.669,18.075-3.866Q937.776,979.355,929.554,982.922Zm-6.008,2.615q-10.094,4.486-19.935,9.3-11.968,1.111-23.769,2.495,10.707-4.355,21.661-8.368C908.785,987.716,916.152,986.606,923.547,985.537Zm-51.54,12.81c-6.75.868-13.468,1.783-20.126,2.8,6.258-2.136,12.532-4.251,18.9-6.222,6.235-1.324,12.532-2.548,18.856-3.732C883.7,993.489,877.832,995.89,872.006,998.347Zm2.5,1.214q12.469-1.569,25.153-2.8-5.863,2.912-11.634,5.941c-3.172,1.67-6.315,3.426-9.464,5.163q-13.48.674-26.745,1.7Q863.011,1004.362,874.5,999.561Zm14.392,5.247c5.695-2.994,11.476-5.87,17.3-8.693q13.14-1.182,26.5-2c-.215.121-.435.238-.65.362-6.837,3.909-13.593,8.039-20.3,12.264q-14.111.251-28,.878C885.462,1006.688,887.168,1005.716,888.894,1004.808Zm44.164-8.093c1.78-1.016,3.593-1.995,5.388-2.994q13.748-.764,27.732-1.15-10.461,6.784-20.669,14.051-14.643-.191-29.053.013C921.951,1003.235,927.482,999.906,933.058,996.714Zm38.12-4.221q14.236-.326,28.7-.258-10.126,7.443-19.959,15.358-15.081-.654-29.953-.932C956.938,1001.75,964.025,997.05,971.178,992.493Zm33.35-.208q14.669.126,29.575.65c-6.518,5.408-12.887,11.01-19.145,16.733q-15.519-1.122-30.815-1.851Q994.174,999.8,1004.527,992.286Zm34.032.812q15.108.593,30.445,1.582c-5,4.677-9.941,9.431-14.759,14.309-1.225,1.24-2.415,2.528-3.632,3.782q-15.913-1.6-31.6-2.789C1025.411,1004.2,1031.9,998.542,1038.56,993.1Zm17.657,18.352c5.582-5.652,11.339-11.12,17.168-16.5q15.5,1.066,31.218,2.528c-1.837,1.938-3.715,3.828-5.522,5.793-4.106,4.456-8.125,9.019-12.094,13.645q-16.324-2.1-32.416-3.748C1055.126,1012.6,1055.662,1012.012,1056.217,1011.449Zm45.031-5.656c2.481-2.7,5.045-5.311,7.582-7.949q14.732,1.433,29.661,3.228c.743.091,1.494.2,2.239.3-5.671,6.732-11.226,13.622-16.6,20.742-10.248-1.549-20.487-3.054-30.663-4.409-.865-.114-1.718-.2-2.582-.315Q1095.992,1011.5,1101.248,1005.793Zm43.555-3.889q16.347,2.042,32.8,4.4-7.929,10.656-15.394,21.872-17.071-2.856-34.14-5.495Q1136.208,1012,1144.8,1001.9Zm36.847,5q16.861,2.464,33.71,5.14c-4.884,7.429-9.574,15.077-14.139,22.854q-17.478-3.087-35.085-6.071C1171.161,1021.349,1176.311,1014.01,1181.651,1006.906Zm37.849,5.813q17.411,2.8,34.671,5.686-6.718,11.571-12.946,23.639-3.663-.659-7.329-1.314c-9.5-1.7-19.1-3.416-28.707-5.123Q1212.115,1023.906,1219.5,1012.72Zm38.854,6.39c6.983,1.177,14,2.35,20.919,3.523l14.86,2.514q-6.069,11.868-11.646,24.2-18.65-3.239-37.22-6.581Q1251.56,1030.689,1258.353,1019.11Zm386.741,54.989c-120.4,35.893-245.937,23.391-369.725,2.139,3.4-8.462,7-16.743,10.716-24.916,129.256,22.338,261.22,38.876,387.5,1.737a506.938,506.938,0,0,0,137.781-64.836C1760.784,1027.142,1704.306,1056.444,1645.094,1074.1Zm617.774-409.771c-1.249.905-2.5,1.783-3.751,2.675-1.711.774-3.414,1.556-5.14,2.317,1.282-1.066,2.558-2.186,3.837-3.266C2259.5,665.477,2261.188,664.914,2262.868,664.327Zm-14.428,4.928q-3.211,2.63-6.419,5.2-4.155,1.735-8.328,3.413,3.3-3,6.59-6.071C2243,670.945,2245.727,670.137,2248.44,669.255Zm-15.522,4.787q-4.115,3.761-8.226,7.4-5.067,1.936-10.209,3.819,4.079-4.033,8.092-8.127C2226.033,676.145,2229.471,675.079,2232.918,674.043Zm-16.274,4.7c-3.024,3.038-6.113,6-9.187,8.985-3.8,1.331-7.6,2.659-11.464,3.932,2.985-3.2,5.913-6.45,8.847-9.7C2208.785,680.936,2212.712,679.836,2216.645,678.746Zm-16.969,4.55q-4.718,5.159-9.523,10.222c-4.088,1.307-8.19,2.595-12.344,3.839,3.17-3.654,6.333-7.319,9.458-11.047C2191.408,685.321,2195.549,684.342,2199.676,683.3Zm-16.879,4.1q-4.866,5.753-9.822,11.375-6.7,1.956-13.51,3.809,4.87-6.03,9.669-12.15C2173.694,689.438,2178.253,688.449,2182.8,687.393Zm-17.5,3.862c-3.295,4.191-6.643,8.314-10,12.431q-6.879,1.821-13.858,3.534c3.259-4.308,6.473-8.67,9.675-13.045Q2158.217,692.772,2165.3,691.255Zm-17.58,3.571c-3.28,4.455-6.571,8.894-9.911,13.276q-7.209,1.725-14.526,3.336,4.879-6.859,9.675-13.809C2137.882,696.746,2142.8,695.778,2147.715,694.826ZM2130,698.131q-4.879,7.055-9.86,13.99-7.4,1.6-14.9,3.068,4.822-7.181,9.542-14.473Q2122.4,699.474,2130,698.131Zm-17.863,3.034q-4.781,7.322-9.64,14.563c-2.046.392-4.064.818-6.121,1.2-3.077.57-6.184,1.036-9.273,1.572q4.723-7.438,9.362-14.952C2101.7,702.775,2106.924,702,2112.142,701.165Zm-17.958,2.729q-4.669,7.553-9.431,15.006c-5.26.9-10.507,1.837-15.791,2.648q4.611-7.649,9.127-15.392Q2086.139,705.071,2094.183,703.894Zm-18.093,2.531q-4.544,7.739-9.165,15.408c-5.37.811-10.761,1.546-16.149,2.27q4.442-7.735,8.808-15.536Q2067.84,707.547,2076.091,706.426Zm-18.22,2.347q-4.379,7.83-8.849,15.579c-5.48.731-10.97,1.4-16.468,2.055q4.258-7.774,8.429-15.616C2046.612,710.153,2052.241,709.463,2057.87,708.772Zm-18.349,2.176q-4.19,7.845-8.453,15.633c-5.617.657-11.231,1.331-16.861,1.918q4.092-7.82,8.125-15.687Q2030.924,711.912,2039.521,710.948ZM1816.23,731.891c36.707-4.09,74.284-7.265,110.627-10.339,31.221-2.642,62.713-5.317,94.246-8.606q-4.025,7.865-8.125,15.67c-43.559,4.489-87.356,6.97-130.264,9.37-36.788,2.062-74.83,4.191-112,7.567a1192.678,1192.678,0,0,0-125.351,17.7C1693.909,750.109,1750.3,739.24,1816.23,731.891ZM1068.865,940.136c-.3.117-.608.228-.912.349-.349.067-.692.141-1.041.211C1067.562,940.509,1068.215,940.321,1068.865,940.136Zm-53.267,15.08c-1.118.426-2.245.832-3.357,1.264-1.291.245-2.573.5-3.861.758C1010.774,956.547,1013.186,955.883,1015.6,955.216Zm-53.944,14.9c-2.048.754-4.1,1.5-6.139,2.276-2.1.389-4.234.738-6.327,1.14Q955.383,971.768,961.655,970.112Zm-55.706,15.046q-3.529,1.257-7.034,2.548c-3.044.53-6.044,1.137-9.067,1.7C895.17,987.924,900.552,986.529,905.949,985.158Zm-53.83,13.906q-5.447,1.85-10.844,3.778c-3.751.62-7.517,1.22-11.238,1.887C837.336,1002.749,844.683,1000.838,852.119,999.065Zm-56.991,14.345c-4.121,1.345-8.235,2.692-12.308,4.1q-6.758,1.051-13.456,2.189Q782.11,1016.354,795.128,1013.41Zm-86.84,20.545c10.024-2.531,20.126-4.942,30.389-7.1-4.8,1.485-9.538,3.058-14.279,4.637Q716.307,1032.649,708.288,1033.955Zm24.2-3.577q10.8-3.455,21.816-6.581,10.644-2.027,21.453-3.8c-6.664,2.4-13.3,4.838-19.831,7.423l-.268.11C747.878,1028.38,740.162,1029.342,732.484,1030.378Zm29.8-3.52q11.472-4.41,23.206-8.438,12.066-1.836,24.339-3.339c-3.286,1.375-6.622,2.675-9.872,4.1-3.969,1.743-7.913,3.567-11.855,5.394Q775.109,1025.536,762.288,1026.857Zm39.748-3.232c-2.868.171-5.716.385-8.575.583,2.373-1.079,4.735-2.192,7.117-3.238,5.367-2.35,10.838-4.55,16.3-6.766q12.8-1.478,25.824-2.618c-7.287,3.537-14.512,7.268-21.682,11.114C814.655,1022.958,808.316,1023.25,802.036,1023.626Zm23.71-1.1c6.291-3.316,12.615-6.558,18.99-9.635,1.222-.587,2.469-1.15,3.7-1.733q13.614-1.106,27.455-1.83-10.837,6.039-21.438,12.569Q839.967,1022.018,825.746,1022.523Zm33.03-.671c7.344-4.445,14.795-8.68,22.3-12.78q14.133-.674,28.5-.962c-7.117,4.526-14.175,9.166-21.092,14.007Q873.5,1021.79,858.777,1021.852Zm33.88.365q10.658-7.362,21.635-14.208,14.6-.226,29.42-.067-10.385,7.493-20.409,15.455Q907.85,1022.608,892.657,1022.217Zm34.587,1.4c6.84-5.367,13.778-10.621,20.865-15.66q15,.231,30.237.875-6.977,5.7-13.766,11.617c-1.989,1.726-3.93,3.517-5.892,5.28Q942.842,1024.469,927.244,1023.619Zm35.255,2.421c1.228-1.09,2.43-2.213,3.667-3.289,5.364-4.684,10.856-9.223,16.4-13.692q15.4.7,31.044,1.837c-1.392,1.281-2.824,2.524-4.2,3.822-4.976,4.67-9.839,9.491-14.652,14.379Q978.516,1027.357,962.5,1026.039Zm35.994,3.446c4.18-4.2,8.4-8.341,12.7-12.377,2.126-2.005,4.323-3.933,6.482-5.9q15.774,1.182,31.775,2.779-9.159,9.5-17.913,19.522Q1014.907,1031.283,998.493,1029.486Zm49.8,6.356c-4.383-.637-8.751-1.237-13.113-1.834q8.878-10.1,18.221-19.629,16.172,1.665,32.565,3.741-8.717,10.219-17.01,20.937C1062.067,1037.971,1055.155,1036.841,1048.3,1035.842Zm24.384,3.8q8.364-10.787,17.186-21.041c1.16.151,2.3.265,3.462.419,9.926,1.321,19.917,2.8,29.917,4.3q-8.091,10.782-15.716,22.14Q1090.075,1042.41,1072.681,1039.637Zm38.576,6.464c5.146-7.59,10.418-15.023,15.874-22.224q17.112,2.615,34.253,5.5c-4.985,7.53-9.789,15.274-14.461,23.166Q1129.137,1049.248,1111.258,1046.1Zm39.441,7.128q7.075-11.863,14.622-23.2,17.639,2.972,35.183,6.085-6.852,11.737-13.223,23.984Q1169.131,1056.669,1150.7,1053.229Zm40.425,7.6q6.427-12.266,13.349-24c9.789,1.74,19.565,3.483,29.241,5.22,2.29.412,4.589.825,6.882,1.234-4.139,8.053-8.158,16.223-11.974,24.585Q1209.827,1064.379,1191.124,1060.826Z" transform="translate(-504.828 -80.38) rotate(14)" opacity="0.15" fill="url(#b)"/></g></g></svg>